<svg width="30" height="30" viewBox="0 0 30 30" fill="none" xmlns="http://www.w3.org/2000/svg">
<path d="M13.5022 9.47414C13.9021 9.09325 13.9175 8.46028 13.5366 8.06034C13.1558 7.66041 12.5228 7.64498 12.1228 8.02586L13.5022 9.47414ZM5.56034 14.2759C5.16041 14.6567 5.14498 15.2897 5.52586 15.6897C5.90675 16.0896 6.53972 16.105 6.93966 15.7241L5.56034 14.2759ZM6.93966 14.2759C6.53972 13.895 5.90675 13.9104 5.52586 14.3103C5.14498 14.7103 5.16041 15.3433 5.56034 15.7241L6.93966 14.2759ZM12.1228 21.9741C12.5228 22.355 13.1558 22.3396 13.5366 21.9397C13.9175 21.5397 13.9021 20.9067 13.5022 20.5259L12.1228 21.9741ZM6.25 14C5.69772 14 5.25 14.4477 5.25 15C5.25 15.5523 5.69772 16 6.25 16V14ZM23.75 16C24.3023 16 24.75 15.5523 24.75 15C24.75 14.4477 24.3023 14 23.75 14V16ZM12.1228 8.02586L5.56034 14.2759L6.93966 15.7241L13.5022 9.47414L12.1228 8.02586ZM5.56034 15.7241L12.1228 21.9741L13.5022 20.5259L6.93966 14.2759L5.56034 15.7241ZM6.25 16H23.75V14H6.25V16Z" fill="black"/>
</svg>
