<svg width="65" height="64" viewBox="0 0 65 64" fill="none" xmlns="http://www.w3.org/2000/svg">
<path d="M18.0881 26.9174C19.174 22.2883 22.7883 18.674 27.4174 17.5881C30.7604 16.804 34.2396 16.804 37.5826 17.5881C42.2117 18.674 45.8261 22.2883 46.9119 26.9174C47.696 30.2604 47.696 33.7396 46.9119 37.0826C45.8261 41.7117 42.2117 45.3261 37.5826 46.4119C34.2396 47.196 30.7604 47.196 27.4174 46.4119C22.7884 45.3261 19.174 41.7117 18.0881 37.0826C17.304 33.7396 17.304 30.2604 18.0881 26.9174Z" stroke="#1D1926" stroke-width="2.5"/>
<path d="M35.4463 29.0537L29.5537 34.9463M35.4463 34.9463L29.5537 29.0537" stroke="#1D1926" stroke-width="2.5" stroke-linecap="round"/>
</svg>
