<svg width="15" height="15" viewBox="0 0 15 15" fill="none" xmlns="http://www.w3.org/2000/svg">
<path d="M7.5 0C6.01664 0 4.56659 0.439867 3.33323 1.26398C2.09986 2.08809 1.13856 3.25943 0.570907 4.62987C0.00324966 6.00032 -0.145275 7.50832 0.144114 8.96318C0.433503 10.418 1.14781 11.7544 2.1967 12.8033C3.2456 13.8522 4.58197 14.5665 6.03682 14.8559C7.49168 15.1453 8.99968 14.9968 10.3701 14.4291C11.7406 13.8614 12.9119 12.9001 13.736 11.6668C14.5601 10.4334 15 8.98336 15 7.5C14.9977 5.5116 14.2067 3.6053 12.8007 2.19929C11.3947 0.793275 9.4884 0.00234578 7.5 0ZM10.7093 6.2775L7.30023 9.68659C7.17237 9.81441 6.99898 9.88622 6.81818 9.88622C6.63739 9.88622 6.464 9.81441 6.33614 9.68659L4.29068 7.64113C4.22556 7.57824 4.17362 7.503 4.13789 7.41982C4.10215 7.33664 4.08335 7.24717 4.08256 7.15664C4.08177 7.0661 4.09902 6.97632 4.13331 6.89253C4.16759 6.80874 4.21821 6.73261 4.28223 6.66859C4.34625 6.60458 4.42238 6.55395 4.50617 6.51967C4.58996 6.48538 4.67974 6.46813 4.77028 6.46892C4.86081 6.46971 4.95027 6.48851 5.03346 6.52425C5.11664 6.55998 5.19188 6.61192 5.25477 6.67704L6.81818 8.24045L9.74523 5.31341C9.87382 5.18921 10.046 5.12049 10.2248 5.12204C10.4036 5.12359 10.5746 5.1953 10.701 5.32171C10.8274 5.44813 10.8991 5.61914 10.9007 5.79791C10.9022 5.97668 10.8335 6.14891 10.7093 6.2775Z" fill="#45CD53"/>
</svg>
