<svg width="24" height="24" viewBox="0 0 24 24" fill="none" xmlns="http://www.w3.org/2000/svg">
<path d="M12 17L12 17.0226" stroke="#5B698E" stroke-width="2" stroke-linecap="round"/>
<path d="M13.25 7H10.75" stroke="#5B698E" stroke-width="1.5" stroke-linecap="round"/>
<path d="M19.3003 14.087H4.69969M14.9161 20.6215C13.0047 21.1262 10.9953 21.1262 9.08393 20.6215C6.72938 19.9998 4.92802 18.1003 4.43096 15.7151L4.33598 15.2593C3.88801 13.1095 3.88801 10.8905 4.33598 8.74072L4.43096 8.28494C4.92801 5.89968 6.72938 4.0002 9.08394 3.3785C10.9953 2.87383 13.0047 2.87383 14.9161 3.3785C17.2706 4.00019 19.072 5.89968 19.569 8.28494L19.664 8.74072C20.112 10.8905 20.112 13.1095 19.664 15.2593L19.569 15.7151C19.072 18.1003 17.2706 19.9998 14.9161 20.6215Z" stroke="#5B698E" stroke-width="1.5" stroke-linecap="round"/>
</svg>
